<?xml version="1.0" encoding="UTF-8"?>
<svg id="Layer_2" data-name="Layer 2" xmlns="http://www.w3.org/2000/svg" width="44.59" height="44.59" viewBox="0 0 44.59 44.59">
  <defs>
    <style>
      .cls-1 {
        fill: #fff;
        stroke-width: 0px;
      }
    </style>
  </defs>
  <g id="Layer_1-2" data-name="Layer 1">
    <g>
      <path class="cls-1" d="m44.16,9.35L35.24.43C34.96.15,34.58,0,34.19,0h-2.97v11.89c0,1.64-1.33,2.97-2.97,2.97h-11.89c-1.64,0-2.97-1.33-2.97-2.97V0H4.46C2,0,0,2,0,4.46v35.67c0,2.46,2,4.46,4.46,4.46h2.97v-13.38c0-2.46,2-4.46,4.46-4.46h20.81c2.46,0,4.46,2,4.46,4.46v13.38h2.97c2.46,0,4.46-2,4.46-4.46V10.4c0-.4-.15-.77-.43-1.06h0Z"/>
      <rect class="cls-1" x="16.35" y="0" width="11.89" height="11.89"/>
      <path class="cls-1" d="m32.7,29.73H11.89c-.82,0-1.49.67-1.49,1.49v13.38h23.78v-13.38c0-.82-.67-1.49-1.49-1.49h0Z"/>
    </g>
  </g>
</svg>